<svg xmlns="http://www.w3.org/2000/svg" viewBox="0 0 245 240" fill="#5865F2">
  <path d="M104.4 104.6c-5.7 0-10.2 5-10.2 11.1s4.6 11.1 10.2 11.1c5.7 0 10.2-5 10.2-11.1.1-6.1-4.5-11.1-10.2-11.1zm36.2 0c-5.7 0-10.2 5-10.2 11.1s4.6 11.1 10.2 11.1c5.7 0 10.2-5 10.2-11.1s-4.5-11.1-10.2-11.1z"></path>
  <path d="M189.5 20h-134C30.5 20 20 30.5 20 44.2v151.6c0 13.6 10.5 24.2 23.5 24.2h110.8l-5.2-18.2 12.6 11.7 11.9 10.9 21.1 18.6V44.2c0-13.7-10.5-24.2-23.5-24.2zm-38.6 131s-3.6-4.3-6.6-8.1c13.1-3.7 18.1-11.8 18.1-11.8-4.1 2.7-8 4.5-11.5 5.8-5 2.1-9.8 3.5-14.5 4.3-9.6 1.8-18.3 1.3-25.8-.1-5.7-1.1-10.6-2.6-14.7-4.3-2.3-.9-4.8-2-7.3-3.4-.3-.2-.6-.3-.9-.5-.2-.1-.3-.2-.4-.3-1.8-1-2.8-1.7-2.8-1.7s4.8 8 17.4 11.8c-3 3.8-6.7 8.3-6.7 8.3-22.1-.7-30.5-15.2-30.5-15.2 0-32.2 14.4-58.4 14.4-58.4 14.4-10.8 28-10.5 28-10.5l1 1.2c-18 5.2-26.2 13.2-26.2 13.2s2.2-1.2 5.9-2.9c10.7-4.7 19.2-6 22.7-6.3.6-.1 1.1-.2 1.7-.2 6.1-.8 13-1 20.2-.2 9.5 1.1 19.7 3.8 30.1 9.4 0 0-7.9-7.5-24.9-12.7l1.4-1.6s13.6-.3 28 10.5c0 0 14.4 26.2 14.4 58.4 0 0-8.6 14.5-30.7 15.2z"></path>
</svg>
